            <svg
              xmlns="http://www.w3.org/2000/svg"
              width="192"
              height="192"
              fill="url(#grad1)"
              viewBox="0 0 256 256"
            >
              <linearGradient id="grad1" x1="0%" y1="0%" x2="0%" y2="100%">
                <stop offset="0%" style="stop-color: #81fbb8; stop-opacity: 1" />
                <stop offset="100%" style="stop-color: #28c76f; stop-opacity: 1"/>
              </linearGradient>
              <rect width="256" height="256" fill="none"></rect>
              <path
                d="M128,24A104,104,0,1,0,232,128,104.2,104.2,0,0,0,128,24Zm36,72a12,12,0,1,1-12,12A12,12,0,0,1,164,96ZM92,96a12,12,0,1,1-12,12A12,12,0,0,1,92,96Zm84.5,60a56,56,0,0,1-97,0,8,8,0,1,1,13.8-8,40.1,40.1,0,0,0,69.4,0,8,8,0,0,1,13.8,8Z"
              ></path>
            </svg>